<mxfile host="65bd71144e">
    <diagram id="6iskNwJr-5nR4xEM0861" name="Page-1">
        <mxGraphModel dx="308" dy="201" grid="1" gridSize="10" guides="1" tooltips="1" connect="1" arrows="1" fold="1" page="1" pageScale="1" pageWidth="850" pageHeight="1100" math="0" shadow="0">
            <root>
                <mxCell id="0"/>
                <mxCell id="1" parent="0"/>
                <mxCell id="3" value="sequenceDiagram&#xa;    participant taskExec as Task Executor&#xa;    participant triageSys as Triage System&#xa;    participant imgProc as Image Processing&#xa;    participant audProc as Audio Processing&#xa;    participant spkrDrv as Speaker&#xa;    participant nav as Path Planner&#xa;    participant supInt as Supervisor Interface&#xa;    taskExec -&gt;&gt;+ triageSys: startTriage(victimInfo)&#xa;&#xa;    %% Initial Assessment (Passive) %%&#xa;    triageSys -&gt;&gt;+ imgProc: requestVisualAnalysis(victimInfo.visualData)&#xa;    imgProc --&gt;&gt;- triageSys: visualAssessmentData(consciousness_level, injuries_visible)&#xa;&#xa;    triageSys -&gt;&gt;+ audProc: requestAudioAnalysis(victimInfo.audioData)&#xa;    audProc --&gt;&gt;- triageSys: audioAssessmentData(sounds_detected, voice_detected)&#xa;&#xa;    %% Optional Repositioning %%&#xa;    alt Need better view/audio&#xa;        triageSys -&gt;&gt;+ taskExec: requestReposition(optimalPose)&#xa;        taskExec -&gt;&gt;+ nav: repostionTask()&#xa;        nav --&gt;&gt;- taskExec : repositionComplete()&#xa;        taskExec--&gt;&gt;- triageSys : repositionAchieved()&#xa;        &#xa;    end&#xa;&#xa;    %% Active Assessment (Interaction) %%&#xa;    triageSys -&gt;&gt;+ spkrDrv: speak(&quot;Are you okay? Can you hear me?&quot;)&#xa;&#xa;    triageSys -&gt;&gt;+ audProc: listenForResponse(timeout)&#xa;    audProc --&gt;&gt;- triageSys: verbalResponseData(response_content / none)&#xa;&#xa;    opt If response received&#xa;        triageSys -&gt;&gt;+ spkrDrv: speak(&quot;Please stay still. Help is coming.&quot;)&#xa;        triageSys -&gt;&gt;+ audProc: listenForResponse(timeout) # Optional follow-up listening&#xa;        audProc --&gt;&gt;- triageSys: verbalResponseData(response_content / none)&#xa;    end&#xa;&#xa;    %% Classification and Reporting %%&#xa;    triageSys -&gt;&gt; triageSys: classifyTriageLevel()&#xa;    triageSys -&gt;&gt;+ supInt: sendTriageReport(triageReport)&#xa;    supInt --&gt;&gt;- triageSys: reportReceivedAck()&#xa;&#xa;    triageSys -&gt;&gt;- taskExec: triageComplete(triageResult)" style="shadow=0;dashed=0;align=left;strokeWidth=1;shape=mxgraph.mermaid.abstract.mermaid;labelBackgroundColor=#ffffff;noLabel=1;theme=default;" vertex="1" parent="1">
                    <mxGeometry x="220" y="130" width="400" height="300" as="geometry"/>
                </mxCell>
            </root>
        </mxGraphModel>
    </diagram>
</mxfile>